<svg width="16" height="16" viewBox="0 0 16 16" fill="none" xmlns="http://www.w3.org/2000/svg">
<path fill-rule="evenodd" clip-rule="evenodd" d="M8 3C9.76146 3 11.393 3.77123 12.7129 4.70457C14.6693 6.08564 15.9395 7.81363 15.9395 7.81363C16.0202 7.92272 16.0202 8.07728 15.9395 8.18637C15.9395 8.18637 14.6694 9.91442 12.7129 11.2954C11.3928 12.2288 9.76132 13 8 13C6.23868 13 4.60701 12.2288 3.28712 11.2954C1.33069 9.91436 0.0605375 8.18637 0.0605375 8.18637C-0.0201792 8.07728 -0.0201792 7.92272 0.0605375 7.81363C0.0605375 7.81363 1.33056 6.08558 3.28712 4.70457C4.60716 3.77123 6.23868 3 8 3ZM8 3.60607C6.35568 3.60607 4.83632 4.33788 3.60347 5.20835C2.10844 6.26517 1.03062 7.53118 0.655568 8.00013C1.03058 8.46908 2.10845 9.73499 3.60347 10.7919C4.83636 11.6624 6.35571 12.3942 8 12.3942C9.64429 12.3942 11.1637 11.6624 12.3965 10.7919C13.8916 9.73508 14.9694 8.46908 15.3444 8.00013C14.9694 7.53118 13.8915 6.26527 12.3965 5.20835C11.1636 4.33788 9.64429 3.60607 8 3.60607ZM8 4.9697C9.57718 4.9697 10.8572 6.32729 10.8572 8.00003C10.8572 9.67277 9.57718 11.0304 8 11.0304C6.42282 11.0304 5.1428 9.67277 5.1428 8.00003C5.1428 6.32729 6.42282 4.9697 8 4.9697ZM8 5.57577C6.73855 5.57577 5.71424 6.66215 5.71424 8.00003C5.71424 9.33791 6.73855 10.4243 8 10.4243C9.26145 10.4243 10.2858 9.33791 10.2858 8.00003C10.2858 6.66215 9.26145 5.57577 8 5.57577Z" fill="#808080"/>
</svg>
